<?xml version="1.0" encoding="UTF-8"?>
<svg id="Layer_2" xmlns="http://www.w3.org/2000/svg" baseProfile="tiny" version="1.2" viewBox="0 0 31.9 32">
  <!-- Generator: Adobe Illustrator 29.5.0, SVG Export Plug-In . SVG Version: 2.1.0 Build 137)  -->
  <path d="M31.1,23.1c-.8.1-.5-.2-.8-.6s-.3-.6-.5-.8-1.2-.9-1.3-1.1,0-.5-.1-.7V6c.1,0-16,2.7-16,2.7v.2c-.3,5.7.3,11.8-.1,17.5-.7.2-.8-.7-1.1-1.2s-1.4-.9-1.5-1.8h0s0-18.8,0-18.8L31,.8h.1c-.4,7.4.5,15.1,0,22.4Z" fill="#a84c2c"/>
  <g>
    <path d="M28.3,20c.2.2,0,.6.1.7s1,.8,1.3,1.1.4.5.5.8c.3.4,0,.8.8.6-.5,7.5-11.9,6-11.7.7s4.1-4.6,6.9-4.3,1.9.4,2.1.5Z" fill="#ff5e00"/>
    <path d="M9.6,23.3c0,.9,1,1.1,1.5,1.8s.5,1.4,1.1,1.2c-.5,7.8-12.3,5.8-11.6.4.5-3.7,6-4.8,9-3.5Z" fill="#ff5e00"/>
  </g>
  <path d="M6.5,31.9c-1.6,0-3.2-.5-4.4-1.3C.6,29.6,0,28.2.2,26.7c.2-1.5,1.1-2.6,2.5-3.4,1.9-1,4.5-1.2,6.5-.6V4.5c0-.2.2-.4.4-.4L30.9.3c.1,0,.3,0,.4.1h.1c0,.2.1.3.1.5-.2,3.4,0,7,0,10.4.1,3.9.2,8,0,11.8-.3,3.9-3.3,5.5-6.3,5.5-.1,0-.3,0-.4,0-2.9-.2-6-1.9-5.9-4.9,0-1.2.6-2.3,1.6-3.1,1.4-1.2,3.8-1.9,5.8-1.6,0,0,.9.2,1.6.3V6.5c0,0-15.3,2.6-15.3,2.6,0,2.4,0,4.9,0,7.3,0,3.3.2,6.7,0,9.9-.2,2.3-1.3,4.1-3.2,4.9-.9.4-1.9.6-3,.6ZM6.7,23.2c-1.2,0-2.5.3-3.6.8-.8.5-1.9,1.3-2.1,2.8-.2,1.2.4,2.3,1.5,3.1,1.8,1.3,4.5,1.6,6.5.6,1.1-.5,2.6-1.7,2.7-4.2.2-3.2.1-6.6,0-9.9,0-2.5-.1-5.1,0-7.6,0,0,0-.2,0-.2v-.2c.2,0,.3-.2.4-.2l16.1-2.7c.1,0,.3,0,.4,0,0,0,.2.2.2.3v14c-.1.2-.2.3-.3.4-.1,0-.3,0-.4,0-.2,0-1.6-.4-1.9-.4-1.7-.2-3.8.4-5.1,1.4-.8.7-1.3,1.5-1.3,2.5,0,2.4,2.5,3.9,5,4,2.5.1,5.5-1,5.8-4.7.3-3.8.2-7.8,0-11.7,0-3.3-.2-6.8,0-10.1l-20.5,3.6v18.5c0,.1-.1.3-.2.3-.1,0-.2.1-.4,0h0s0,0,0,0c-.8-.4-1.7-.5-2.7-.5ZM28.1,20.3s0,0,0,0c0,0,0,0,0,0Z" fill="#3f2a29"/>
</svg>